<mxfile host="Electron" agent="Mozilla/5.0 (X11; Linux x86_64) AppleWebKit/537.36 (KHTML, like Gecko) draw.io/26.0.9 Chrome/128.0.6613.186 Electron/32.2.5 Safari/537.36" version="26.0.9">
  <diagram name="Page-1" id="rQ9JmWwxd0XCxTemWs2_">
    <mxGraphModel dx="2074" dy="1230" grid="1" gridSize="10" guides="1" tooltips="1" connect="1" arrows="1" fold="1" page="1" pageScale="1" pageWidth="850" pageHeight="1100" math="0" shadow="0">
      <root>
        <mxCell id="0" />
        <mxCell id="1" parent="0" />
        <mxCell id="4xT_OSYhyHWeqmXZpx4W-3" value="" style="edgeStyle=orthogonalEdgeStyle;rounded=0;orthogonalLoop=1;jettySize=auto;html=1;" parent="1" source="4xT_OSYhyHWeqmXZpx4W-1" target="4xT_OSYhyHWeqmXZpx4W-2" edge="1">
          <mxGeometry relative="1" as="geometry" />
        </mxCell>
        <mxCell id="4xT_OSYhyHWeqmXZpx4W-1" value="CRTDL" style="shape=parallelogram;perimeter=parallelogramPerimeter;whiteSpace=wrap;html=1;fixedSize=1;" parent="1" vertex="1">
          <mxGeometry x="190" y="130" width="120" height="60" as="geometry" />
        </mxCell>
        <mxCell id="4xT_OSYhyHWeqmXZpx4W-5" value="" style="edgeStyle=orthogonalEdgeStyle;rounded=0;orthogonalLoop=1;jettySize=auto;html=1;" parent="1" source="4xT_OSYhyHWeqmXZpx4W-2" target="4xT_OSYhyHWeqmXZpx4W-4" edge="1">
          <mxGeometry relative="1" as="geometry" />
        </mxCell>
        <mxCell id="4xT_OSYhyHWeqmXZpx4W-2" value="Validate" style="rounded=1;whiteSpace=wrap;html=1;" parent="1" vertex="1">
          <mxGeometry x="190" y="240" width="120" height="60" as="geometry" />
        </mxCell>
        <mxCell id="4xT_OSYhyHWeqmXZpx4W-7" value="" style="edgeStyle=orthogonalEdgeStyle;rounded=0;orthogonalLoop=1;jettySize=auto;html=1;" parent="1" source="4xT_OSYhyHWeqmXZpx4W-4" target="4xT_OSYhyHWeqmXZpx4W-6" edge="1">
          <mxGeometry relative="1" as="geometry" />
        </mxCell>
        <mxCell id="4xT_OSYhyHWeqmXZpx4W-18" value="" style="edgeStyle=orthogonalEdgeStyle;rounded=0;orthogonalLoop=1;jettySize=auto;html=1;" parent="1" source="4xT_OSYhyHWeqmXZpx4W-4" target="4xT_OSYhyHWeqmXZpx4W-17" edge="1">
          <mxGeometry relative="1" as="geometry" />
        </mxCell>
        <mxCell id="4xT_OSYhyHWeqmXZpx4W-4" value="Annotated CRTDL" style="shape=parallelogram;perimeter=parallelogramPerimeter;whiteSpace=wrap;html=1;fixedSize=1;" parent="1" vertex="1">
          <mxGeometry x="190" y="350" width="120" height="60" as="geometry" />
        </mxCell>
        <mxCell id="4xT_OSYhyHWeqmXZpx4W-9" value="" style="edgeStyle=orthogonalEdgeStyle;rounded=0;orthogonalLoop=1;jettySize=auto;html=1;" parent="1" source="4xT_OSYhyHWeqmXZpx4W-6" target="4xT_OSYhyHWeqmXZpx4W-8" edge="1">
          <mxGeometry relative="1" as="geometry" />
        </mxCell>
        <mxCell id="4xT_OSYhyHWeqmXZpx4W-6" value="split into Groups" style="rounded=1;whiteSpace=wrap;html=1;" parent="1" vertex="1">
          <mxGeometry x="190" y="460" width="120" height="60" as="geometry" />
        </mxCell>
        <mxCell id="4xT_OSYhyHWeqmXZpx4W-21" value="" style="edgeStyle=orthogonalEdgeStyle;rounded=0;orthogonalLoop=1;jettySize=auto;html=1;" parent="1" source="4xT_OSYhyHWeqmXZpx4W-8" target="4xT_OSYhyHWeqmXZpx4W-12" edge="1">
          <mxGeometry relative="1" as="geometry" />
        </mxCell>
        <mxCell id="4xT_OSYhyHWeqmXZpx4W-31" value="" style="edgeStyle=orthogonalEdgeStyle;rounded=0;orthogonalLoop=1;jettySize=auto;html=1;" parent="1" source="4xT_OSYhyHWeqmXZpx4W-8" target="4xT_OSYhyHWeqmXZpx4W-30" edge="1">
          <mxGeometry relative="1" as="geometry" />
        </mxCell>
        <mxCell id="4xT_OSYhyHWeqmXZpx4W-8" value="GroupsToBeProcessed" style="shape=parallelogram;perimeter=parallelogramPerimeter;whiteSpace=wrap;html=1;fixedSize=1;" parent="1" vertex="1">
          <mxGeometry x="175" y="670" width="150" height="60" as="geometry" />
        </mxCell>
        <mxCell id="4xT_OSYhyHWeqmXZpx4W-16" value="" style="edgeStyle=orthogonalEdgeStyle;rounded=0;orthogonalLoop=1;jettySize=auto;html=1;" parent="1" source="4xT_OSYhyHWeqmXZpx4W-12" target="4xT_OSYhyHWeqmXZpx4W-15" edge="1">
          <mxGeometry relative="1" as="geometry" />
        </mxCell>
        <mxCell id="4xT_OSYhyHWeqmXZpx4W-12" value="Direct Load Core&amp;nbsp;" style="rounded=0;whiteSpace=wrap;html=1;" parent="1" vertex="1">
          <mxGeometry x="190" y="790" width="120" height="60" as="geometry" />
        </mxCell>
        <mxCell id="lnOtOtBOv3MNs2cxyj5u-1" style="edgeStyle=orthogonalEdgeStyle;rounded=0;orthogonalLoop=1;jettySize=auto;html=1;entryX=0;entryY=0.5;entryDx=0;entryDy=0;" parent="1" source="4xT_OSYhyHWeqmXZpx4W-15" target="S8sVybLB9j99WlBHO61R-1" edge="1">
          <mxGeometry relative="1" as="geometry" />
        </mxCell>
        <mxCell id="4xT_OSYhyHWeqmXZpx4W-15" value="CoreResourceBundle" style="shape=parallelogram;perimeter=parallelogramPerimeter;whiteSpace=wrap;html=1;fixedSize=1;" parent="1" vertex="1">
          <mxGeometry x="170" y="905" width="160" height="70" as="geometry" />
        </mxCell>
        <mxCell id="4xT_OSYhyHWeqmXZpx4W-20" value="" style="edgeStyle=orthogonalEdgeStyle;rounded=0;orthogonalLoop=1;jettySize=auto;html=1;" parent="1" source="4xT_OSYhyHWeqmXZpx4W-17" target="4xT_OSYhyHWeqmXZpx4W-19" edge="1">
          <mxGeometry relative="1" as="geometry" />
        </mxCell>
        <mxCell id="4xT_OSYhyHWeqmXZpx4W-17" value="Get Cohort" style="whiteSpace=wrap;html=1;" parent="1" vertex="1">
          <mxGeometry x="350" y="350" width="120" height="60" as="geometry" />
        </mxCell>
        <mxCell id="4xT_OSYhyHWeqmXZpx4W-25" value="" style="edgeStyle=orthogonalEdgeStyle;rounded=0;orthogonalLoop=1;jettySize=auto;html=1;" parent="1" source="4xT_OSYhyHWeqmXZpx4W-19" target="4xT_OSYhyHWeqmXZpx4W-22" edge="1">
          <mxGeometry relative="1" as="geometry" />
        </mxCell>
        <mxCell id="4xT_OSYhyHWeqmXZpx4W-19" value="Patient Batches" style="shape=parallelogram;perimeter=parallelogramPerimeter;whiteSpace=wrap;html=1;fixedSize=1;" parent="1" vertex="1">
          <mxGeometry x="515" y="350" width="120" height="60" as="geometry" />
        </mxCell>
        <mxCell id="4xT_OSYhyHWeqmXZpx4W-29" value="" style="edgeStyle=orthogonalEdgeStyle;rounded=0;orthogonalLoop=1;jettySize=auto;html=1;" parent="1" source="4xT_OSYhyHWeqmXZpx4W-22" target="4xT_OSYhyHWeqmXZpx4W-28" edge="1">
          <mxGeometry relative="1" as="geometry" />
        </mxCell>
        <mxCell id="4xT_OSYhyHWeqmXZpx4W-22" value="Get Consent" style="whiteSpace=wrap;html=1;" parent="1" vertex="1">
          <mxGeometry x="515" y="460" width="120" height="60" as="geometry" />
        </mxCell>
        <mxCell id="4xT_OSYhyHWeqmXZpx4W-32" value="" style="edgeStyle=orthogonalEdgeStyle;rounded=0;orthogonalLoop=1;jettySize=auto;html=1;" parent="1" source="4xT_OSYhyHWeqmXZpx4W-28" target="4xT_OSYhyHWeqmXZpx4W-30" edge="1">
          <mxGeometry relative="1" as="geometry" />
        </mxCell>
        <mxCell id="4xT_OSYhyHWeqmXZpx4W-28" value="PatientBatchWithConsent" style="shape=parallelogram;perimeter=parallelogramPerimeter;whiteSpace=wrap;html=1;fixedSize=1;" parent="1" vertex="1">
          <mxGeometry x="492.5" y="540" width="165" height="80" as="geometry" />
        </mxCell>
        <mxCell id="4xT_OSYhyHWeqmXZpx4W-36" value="" style="edgeStyle=orthogonalEdgeStyle;rounded=0;orthogonalLoop=1;jettySize=auto;html=1;" parent="1" source="4xT_OSYhyHWeqmXZpx4W-30" target="4xT_OSYhyHWeqmXZpx4W-35" edge="1">
          <mxGeometry relative="1" as="geometry" />
        </mxCell>
        <mxCell id="4xT_OSYhyHWeqmXZpx4W-30" value="Direct Load Patient Resources" style="whiteSpace=wrap;html=1;" parent="1" vertex="1">
          <mxGeometry x="515" y="670" width="120" height="60" as="geometry" />
        </mxCell>
        <mxCell id="S8sVybLB9j99WlBHO61R-3" value="" style="edgeStyle=orthogonalEdgeStyle;rounded=0;orthogonalLoop=1;jettySize=auto;html=1;" parent="1" source="4xT_OSYhyHWeqmXZpx4W-35" target="S8sVybLB9j99WlBHO61R-1" edge="1">
          <mxGeometry relative="1" as="geometry" />
        </mxCell>
        <mxCell id="4xT_OSYhyHWeqmXZpx4W-35" value="PatientBatchWithConsent" style="shape=parallelogram;perimeter=parallelogramPerimeter;whiteSpace=wrap;html=1;fixedSize=1;" parent="1" vertex="1">
          <mxGeometry x="500" y="785" width="150" height="70" as="geometry" />
        </mxCell>
        <mxCell id="4xT_OSYhyHWeqmXZpx4W-49" value="" style="edgeStyle=orthogonalEdgeStyle;rounded=0;orthogonalLoop=1;jettySize=auto;html=1;" parent="1" source="4xT_OSYhyHWeqmXZpx4W-50" target="4xT_OSYhyHWeqmXZpx4W-52" edge="1">
          <mxGeometry relative="1" as="geometry" />
        </mxCell>
        <mxCell id="4xT_OSYhyHWeqmXZpx4W-50" value="Cascading Delete" style="shape=process;whiteSpace=wrap;html=1;backgroundOutline=1;" parent="1" vertex="1">
          <mxGeometry x="515" y="1010" width="120" height="60" as="geometry" />
        </mxCell>
        <mxCell id="4xT_OSYhyHWeqmXZpx4W-51" value="" style="edgeStyle=orthogonalEdgeStyle;rounded=0;orthogonalLoop=1;jettySize=auto;html=1;" parent="1" source="4xT_OSYhyHWeqmXZpx4W-52" target="4xT_OSYhyHWeqmXZpx4W-55" edge="1">
          <mxGeometry relative="1" as="geometry" />
        </mxCell>
        <mxCell id="4xT_OSYhyHWeqmXZpx4W-52" value="Extraction" style="shape=process;whiteSpace=wrap;html=1;backgroundOutline=1;" parent="1" vertex="1">
          <mxGeometry x="515" y="1110" width="120" height="60" as="geometry" />
        </mxCell>
        <mxCell id="4xT_OSYhyHWeqmXZpx4W-53" value="Bundles" style="ellipse;whiteSpace=wrap;html=1;" parent="1" vertex="1">
          <mxGeometry x="534.03" y="1310" width="80" height="80" as="geometry" />
        </mxCell>
        <mxCell id="4xT_OSYhyHWeqmXZpx4W-54" value="" style="edgeStyle=orthogonalEdgeStyle;rounded=0;orthogonalLoop=1;jettySize=auto;html=1;" parent="1" source="4xT_OSYhyHWeqmXZpx4W-55" edge="1">
          <mxGeometry relative="1" as="geometry">
            <mxPoint x="575" y="1310" as="targetPoint" />
          </mxGeometry>
        </mxCell>
        <mxCell id="4xT_OSYhyHWeqmXZpx4W-55" value="Write out Results" style="shape=process;whiteSpace=wrap;html=1;backgroundOutline=1;" parent="1" vertex="1">
          <mxGeometry x="515" y="1210" width="120" height="60" as="geometry" />
        </mxCell>
        <mxCell id="S8sVybLB9j99WlBHO61R-4" value="" style="edgeStyle=orthogonalEdgeStyle;rounded=0;orthogonalLoop=1;jettySize=auto;html=1;" parent="1" source="S8sVybLB9j99WlBHO61R-1" target="4xT_OSYhyHWeqmXZpx4W-50" edge="1">
          <mxGeometry relative="1" as="geometry" />
        </mxCell>
        <mxCell id="S8sVybLB9j99WlBHO61R-1" value="Resolve and extract referenced&lt;div&gt;resources&lt;/div&gt;" style="shape=process;whiteSpace=wrap;html=1;backgroundOutline=1;" parent="1" vertex="1">
          <mxGeometry x="515" y="910" width="120" height="60" as="geometry" />
        </mxCell>
        <mxCell id="S8sVybLB9j99WlBHO61R-18" value="" style="edgeStyle=orthogonalEdgeStyle;rounded=0;orthogonalLoop=1;jettySize=auto;html=1;entryX=0;entryY=0.5;entryDx=0;entryDy=0;" parent="1" source="S8sVybLB9j99WlBHO61R-19" target="S8sVybLB9j99WlBHO61R-34" edge="1">
          <mxGeometry relative="1" as="geometry">
            <mxPoint x="1175" y="400" as="targetPoint" />
          </mxGeometry>
        </mxCell>
        <mxCell id="S8sVybLB9j99WlBHO61R-19" value="PatientBatch&lt;div&gt;WithConsent&lt;br&gt;&lt;/div&gt;" style="shape=parallelogram;html=1;strokeWidth=2;perimeter=parallelogramPerimeter;whiteSpace=wrap;rounded=1;arcSize=12;size=0.23;" parent="1" vertex="1">
          <mxGeometry x="970" y="355" width="160" height="90" as="geometry" />
        </mxCell>
        <mxCell id="S8sVybLB9j99WlBHO61R-22" value="updated PatientBatch&lt;div&gt;WithConsent&lt;/div&gt;" style="shape=parallelogram;perimeter=parallelogramPerimeter;whiteSpace=wrap;html=1;fixedSize=1;rounded=1;arcSize=14;strokeWidth=2;" parent="1" vertex="1">
          <mxGeometry x="1570" y="362.5" width="170" height="75" as="geometry" />
        </mxCell>
        <mxCell id="S8sVybLB9j99WlBHO61R-24" value="Fetch and assign Resources for directly loaded Patient Attribute Groups" style="text;html=1;align=center;verticalAlign=middle;whiteSpace=wrap;rounded=0;" parent="1" vertex="1">
          <mxGeometry x="850" y="350" width="110" height="100" as="geometry" />
        </mxCell>
        <mxCell id="S8sVybLB9j99WlBHO61R-52" style="edgeStyle=orthogonalEdgeStyle;rounded=0;orthogonalLoop=1;jettySize=auto;html=1;" parent="1" source="S8sVybLB9j99WlBHO61R-32" edge="1">
          <mxGeometry relative="1" as="geometry">
            <mxPoint x="1140" y="400" as="targetPoint" />
          </mxGeometry>
        </mxCell>
        <mxCell id="S8sVybLB9j99WlBHO61R-32" value="Groups to be&amp;nbsp;&lt;div&gt;directly loaded&lt;/div&gt;" style="shape=parallelogram;html=1;strokeWidth=2;perimeter=parallelogramPerimeter;whiteSpace=wrap;rounded=1;arcSize=12;size=0.23;" parent="1" vertex="1">
          <mxGeometry x="940" y="480" width="160" height="90" as="geometry" />
        </mxCell>
        <mxCell id="S8sVybLB9j99WlBHO61R-40" value="" style="edgeStyle=orthogonalEdgeStyle;rounded=0;orthogonalLoop=1;jettySize=auto;html=1;entryX=0;entryY=0.5;entryDx=0;entryDy=0;" parent="1" source="S8sVybLB9j99WlBHO61R-34" target="S8sVybLB9j99WlBHO61R-22" edge="1">
          <mxGeometry relative="1" as="geometry">
            <mxPoint x="1530" y="400" as="targetPoint" />
          </mxGeometry>
        </mxCell>
        <mxCell id="S8sVybLB9j99WlBHO61R-41" value="no" style="edgeLabel;html=1;align=center;verticalAlign=middle;resizable=0;points=[];" parent="S8sVybLB9j99WlBHO61R-40" vertex="1" connectable="0">
          <mxGeometry x="-0.1" y="-5" relative="1" as="geometry">
            <mxPoint as="offset" />
          </mxGeometry>
        </mxCell>
        <mxCell id="S8sVybLB9j99WlBHO61R-43" value="" style="edgeStyle=orthogonalEdgeStyle;rounded=0;orthogonalLoop=1;jettySize=auto;html=1;" parent="1" source="S8sVybLB9j99WlBHO61R-34" target="S8sVybLB9j99WlBHO61R-42" edge="1">
          <mxGeometry relative="1" as="geometry" />
        </mxCell>
        <mxCell id="S8sVybLB9j99WlBHO61R-44" value="yes" style="edgeLabel;html=1;align=center;verticalAlign=middle;resizable=0;points=[];" parent="S8sVybLB9j99WlBHO61R-43" vertex="1" connectable="0">
          <mxGeometry x="-0.2333" y="-1" relative="1" as="geometry">
            <mxPoint x="34" as="offset" />
          </mxGeometry>
        </mxCell>
        <mxCell id="S8sVybLB9j99WlBHO61R-34" value="unprocessed&lt;div&gt;&amp;nbsp;Groups?&lt;/div&gt;" style="rhombus;whiteSpace=wrap;html=1;" parent="1" vertex="1">
          <mxGeometry x="1370" y="350" width="120" height="100" as="geometry" />
        </mxCell>
        <mxCell id="S8sVybLB9j99WlBHO61R-50" value="" style="edgeStyle=orthogonalEdgeStyle;rounded=0;orthogonalLoop=1;jettySize=auto;html=1;" parent="1" source="S8sVybLB9j99WlBHO61R-42" target="S8sVybLB9j99WlBHO61R-49" edge="1">
          <mxGeometry relative="1" as="geometry" />
        </mxCell>
        <mxCell id="S8sVybLB9j99WlBHO61R-42" value="Fetch group for batch" style="rounded=0;whiteSpace=wrap;html=1;" parent="1" vertex="1">
          <mxGeometry x="1370" y="230" width="120" height="60" as="geometry" />
        </mxCell>
        <mxCell id="S8sVybLB9j99WlBHO61R-53" style="edgeStyle=orthogonalEdgeStyle;rounded=0;orthogonalLoop=1;jettySize=auto;html=1;" parent="1" source="S8sVybLB9j99WlBHO61R-49" edge="1">
          <mxGeometry relative="1" as="geometry">
            <mxPoint x="1260" y="400" as="targetPoint" />
          </mxGeometry>
        </mxCell>
        <mxCell id="S8sVybLB9j99WlBHO61R-49" value="Assign Resources" style="shape=process;whiteSpace=wrap;html=1;backgroundOutline=1;" parent="1" vertex="1">
          <mxGeometry x="1200" y="230" width="120" height="60" as="geometry" />
        </mxCell>
        <mxCell id="S8sVybLB9j99WlBHO61R-54" value="Assign Resources" style="text;html=1;align=center;verticalAlign=middle;whiteSpace=wrap;rounded=0;" parent="1" vertex="1">
          <mxGeometry x="850" y="710" width="110" height="100" as="geometry" />
        </mxCell>
        <mxCell id="S8sVybLB9j99WlBHO61R-63" style="edgeStyle=orthogonalEdgeStyle;rounded=0;orthogonalLoop=1;jettySize=auto;html=1;entryX=0;entryY=0.5;entryDx=0;entryDy=0;" parent="1" source="S8sVybLB9j99WlBHO61R-55" target="S8sVybLB9j99WlBHO61R-60" edge="1">
          <mxGeometry relative="1" as="geometry">
            <Array as="points">
              <mxPoint x="1160" y="755" />
              <mxPoint x="1160" y="810" />
            </Array>
          </mxGeometry>
        </mxCell>
        <mxCell id="S8sVybLB9j99WlBHO61R-55" value="PatientBatch&lt;div&gt;WithConsent&lt;br&gt;&lt;/div&gt;" style="shape=parallelogram;html=1;strokeWidth=2;perimeter=parallelogramPerimeter;whiteSpace=wrap;rounded=1;arcSize=12;size=0.23;" parent="1" vertex="1">
          <mxGeometry x="980" y="710" width="160" height="90" as="geometry" />
        </mxCell>
        <mxCell id="S8sVybLB9j99WlBHO61R-64" style="edgeStyle=orthogonalEdgeStyle;rounded=0;orthogonalLoop=1;jettySize=auto;html=1;entryX=0;entryY=0.5;entryDx=0;entryDy=0;" parent="1" source="S8sVybLB9j99WlBHO61R-56" target="S8sVybLB9j99WlBHO61R-60" edge="1">
          <mxGeometry relative="1" as="geometry">
            <Array as="points">
              <mxPoint x="1160" y="875" />
              <mxPoint x="1160" y="810" />
            </Array>
          </mxGeometry>
        </mxCell>
        <mxCell id="S8sVybLB9j99WlBHO61R-56" value="directly loaded&amp;nbsp;&lt;div&gt;Resources for group&lt;/div&gt;" style="shape=parallelogram;html=1;strokeWidth=2;perimeter=parallelogramPerimeter;whiteSpace=wrap;rounded=1;arcSize=12;size=0.23;" parent="1" vertex="1">
          <mxGeometry x="950" y="830" width="160" height="90" as="geometry" />
        </mxCell>
        <mxCell id="S8sVybLB9j99WlBHO61R-66" value="" style="edgeStyle=orthogonalEdgeStyle;rounded=0;orthogonalLoop=1;jettySize=auto;html=1;" parent="1" source="S8sVybLB9j99WlBHO61R-60" target="S8sVybLB9j99WlBHO61R-65" edge="1">
          <mxGeometry relative="1" as="geometry">
            <Array as="points">
              <mxPoint x="1280" y="740" />
              <mxPoint x="1280" y="740" />
            </Array>
          </mxGeometry>
        </mxCell>
        <mxCell id="S8sVybLB9j99WlBHO61R-69" value="no" style="edgeLabel;html=1;align=center;verticalAlign=middle;resizable=0;points=[];" parent="S8sVybLB9j99WlBHO61R-66" vertex="1" connectable="0">
          <mxGeometry x="0.2" y="3" relative="1" as="geometry">
            <mxPoint x="23" y="10" as="offset" />
          </mxGeometry>
        </mxCell>
        <mxCell id="S8sVybLB9j99WlBHO61R-68" value="" style="edgeStyle=orthogonalEdgeStyle;rounded=0;orthogonalLoop=1;jettySize=auto;html=1;" parent="1" source="S8sVybLB9j99WlBHO61R-60" target="S8sVybLB9j99WlBHO61R-67" edge="1">
          <mxGeometry relative="1" as="geometry" />
        </mxCell>
        <mxCell id="S8sVybLB9j99WlBHO61R-60" value="Consent Fulfilled&amp;nbsp;" style="rhombus;whiteSpace=wrap;html=1;strokeWidth=2;rounded=1;arcSize=12;" parent="1" vertex="1">
          <mxGeometry x="1240" y="770" width="80" height="80" as="geometry" />
        </mxCell>
        <mxCell id="S8sVybLB9j99WlBHO61R-65" value="Throw away Resource" style="whiteSpace=wrap;html=1;strokeWidth=2;rounded=1;arcSize=12;" parent="1" vertex="1">
          <mxGeometry x="1220" y="660" width="120" height="60" as="geometry" />
        </mxCell>
        <mxCell id="S8sVybLB9j99WlBHO61R-70" style="edgeStyle=orthogonalEdgeStyle;rounded=0;orthogonalLoop=1;jettySize=auto;html=1;entryX=1;entryY=0.5;entryDx=0;entryDy=0;" parent="1" source="S8sVybLB9j99WlBHO61R-67" target="S8sVybLB9j99WlBHO61R-65" edge="1">
          <mxGeometry relative="1" as="geometry">
            <Array as="points">
              <mxPoint x="1440" y="690" />
            </Array>
          </mxGeometry>
        </mxCell>
        <mxCell id="S8sVybLB9j99WlBHO61R-71" value="no" style="edgeLabel;html=1;align=center;verticalAlign=middle;resizable=0;points=[];" parent="S8sVybLB9j99WlBHO61R-70" vertex="1" connectable="0">
          <mxGeometry x="0.3667" y="-2" relative="1" as="geometry">
            <mxPoint x="3" y="12" as="offset" />
          </mxGeometry>
        </mxCell>
        <mxCell id="S8sVybLB9j99WlBHO61R-73" value="" style="edgeStyle=orthogonalEdgeStyle;rounded=0;orthogonalLoop=1;jettySize=auto;html=1;" parent="1" source="S8sVybLB9j99WlBHO61R-67" target="S8sVybLB9j99WlBHO61R-72" edge="1">
          <mxGeometry relative="1" as="geometry" />
        </mxCell>
        <mxCell id="S8sVybLB9j99WlBHO61R-74" value="yes" style="edgeLabel;html=1;align=center;verticalAlign=middle;resizable=0;points=[];" parent="S8sVybLB9j99WlBHO61R-73" vertex="1" connectable="0">
          <mxGeometry x="0.0389" relative="1" as="geometry">
            <mxPoint y="-20" as="offset" />
          </mxGeometry>
        </mxCell>
        <mxCell id="S8sVybLB9j99WlBHO61R-67" value="Must Have fulfilled" style="rhombus;whiteSpace=wrap;html=1;strokeWidth=2;rounded=1;arcSize=12;" parent="1" vertex="1">
          <mxGeometry x="1400" y="770" width="80" height="80" as="geometry" />
        </mxCell>
        <mxCell id="S8sVybLB9j99WlBHO61R-72" value="add Resource with Group to batch" style="whiteSpace=wrap;html=1;strokeWidth=2;rounded=1;arcSize=12;" parent="1" vertex="1">
          <mxGeometry x="1540" y="780" width="120" height="60" as="geometry" />
        </mxCell>
        <mxCell id="zs8xVPO66WnE017DUfmN-1" value="&lt;span style=&quot;color: rgb(0, 0, 0); font-family: Helvetica; font-size: 12px; font-style: normal; font-variant-ligatures: normal; font-variant-caps: normal; font-weight: 400; letter-spacing: normal; orphans: 2; text-align: center; text-indent: 0px; text-transform: none; widows: 2; word-spacing: 0px; -webkit-text-stroke-width: 0px; white-space: normal; background-color: rgb(251, 251, 251); text-decoration-thickness: initial; text-decoration-style: initial; text-decoration-color: initial; float: none; display: inline !important;&quot;&gt;BatchReferenceProcessor&lt;/span&gt;" style="text;whiteSpace=wrap;html=1;" vertex="1" parent="1">
          <mxGeometry x="850" y="1100" width="150" height="30" as="geometry" />
        </mxCell>
        <mxCell id="zs8xVPO66WnE017DUfmN-6" style="edgeStyle=orthogonalEdgeStyle;rounded=0;orthogonalLoop=1;jettySize=auto;html=1;" edge="1" parent="1" source="zs8xVPO66WnE017DUfmN-2" target="zs8xVPO66WnE017DUfmN-4">
          <mxGeometry relative="1" as="geometry" />
        </mxCell>
        <mxCell id="zs8xVPO66WnE017DUfmN-2" value="List of PatientBatch&lt;div&gt;WithConsent&lt;br&gt;&lt;/div&gt;" style="shape=parallelogram;html=1;strokeWidth=2;perimeter=parallelogramPerimeter;whiteSpace=wrap;rounded=1;arcSize=12;size=0.23;" vertex="1" parent="1">
          <mxGeometry x="1040" y="1070" width="160" height="90" as="geometry" />
        </mxCell>
        <mxCell id="zs8xVPO66WnE017DUfmN-11" style="edgeStyle=orthogonalEdgeStyle;rounded=0;orthogonalLoop=1;jettySize=auto;html=1;" edge="1" parent="1" source="zs8xVPO66WnE017DUfmN-3" target="zs8xVPO66WnE017DUfmN-9">
          <mxGeometry relative="1" as="geometry" />
        </mxCell>
        <mxCell id="zs8xVPO66WnE017DUfmN-3" value="&lt;div&gt;CoreResourceBundle&lt;/div&gt;" style="shape=parallelogram;html=1;strokeWidth=2;perimeter=parallelogramPerimeter;whiteSpace=wrap;rounded=1;arcSize=12;size=0.23;" vertex="1" parent="1">
          <mxGeometry x="1495" y="1220" width="160" height="90" as="geometry" />
        </mxCell>
        <mxCell id="zs8xVPO66WnE017DUfmN-4" value="For every PatientResourceBundle" style="whiteSpace=wrap;html=1;strokeWidth=2;rounded=1;arcSize=12;" vertex="1" parent="1">
          <mxGeometry x="1250" y="1077.5" width="150" height="75" as="geometry" />
        </mxCell>
        <mxCell id="zs8xVPO66WnE017DUfmN-13" style="edgeStyle=orthogonalEdgeStyle;rounded=0;orthogonalLoop=1;jettySize=auto;html=1;" edge="1" parent="1" source="zs8xVPO66WnE017DUfmN-9" target="zs8xVPO66WnE017DUfmN-12">
          <mxGeometry relative="1" as="geometry" />
        </mxCell>
        <mxCell id="zs8xVPO66WnE017DUfmN-9" value="Process PatientBundle References&amp;nbsp;&lt;div&gt;(Updating PatientResourceBundle and CoreResourceBundle&lt;/div&gt;" style="shape=process;whiteSpace=wrap;html=1;backgroundOutline=1;" vertex="1" parent="1">
          <mxGeometry x="1480" y="1078" width="190" height="82" as="geometry" />
        </mxCell>
        <mxCell id="zs8xVPO66WnE017DUfmN-10" style="edgeStyle=orthogonalEdgeStyle;rounded=0;orthogonalLoop=1;jettySize=auto;html=1;entryX=-0.016;entryY=0.441;entryDx=0;entryDy=0;entryPerimeter=0;" edge="1" parent="1" source="zs8xVPO66WnE017DUfmN-4" target="zs8xVPO66WnE017DUfmN-9">
          <mxGeometry relative="1" as="geometry" />
        </mxCell>
        <mxCell id="zs8xVPO66WnE017DUfmN-15" style="edgeStyle=orthogonalEdgeStyle;rounded=0;orthogonalLoop=1;jettySize=auto;html=1;" edge="1" parent="1" source="zs8xVPO66WnE017DUfmN-12">
          <mxGeometry relative="1" as="geometry">
            <mxPoint x="1930" y="1119" as="targetPoint" />
          </mxGeometry>
        </mxCell>
        <mxCell id="zs8xVPO66WnE017DUfmN-12" value="Collect Updated Batches and CoreResourceBundle" style="rounded=1;whiteSpace=wrap;html=1;" vertex="1" parent="1">
          <mxGeometry x="1760" y="1089" width="120" height="60" as="geometry" />
        </mxCell>
        <mxCell id="zs8xVPO66WnE017DUfmN-19" style="edgeStyle=orthogonalEdgeStyle;rounded=0;orthogonalLoop=1;jettySize=auto;html=1;" edge="1" parent="1" source="zs8xVPO66WnE017DUfmN-14" target="zs8xVPO66WnE017DUfmN-18">
          <mxGeometry relative="1" as="geometry" />
        </mxCell>
        <mxCell id="zs8xVPO66WnE017DUfmN-22" style="edgeStyle=orthogonalEdgeStyle;rounded=0;orthogonalLoop=1;jettySize=auto;html=1;" edge="1" parent="1" source="zs8xVPO66WnE017DUfmN-14" target="zs8xVPO66WnE017DUfmN-20">
          <mxGeometry relative="1" as="geometry">
            <Array as="points">
              <mxPoint x="2160" y="1119" />
              <mxPoint x="2160" y="1225" />
            </Array>
          </mxGeometry>
        </mxCell>
        <mxCell id="zs8xVPO66WnE017DUfmN-14" value="Resolve CoreResourceBundle&lt;div&gt;References&lt;/div&gt;" style="shape=process;whiteSpace=wrap;html=1;backgroundOutline=1;" vertex="1" parent="1">
          <mxGeometry x="1935" y="1078" width="190" height="82" as="geometry" />
        </mxCell>
        <mxCell id="zs8xVPO66WnE017DUfmN-18" value="updated List of PatientBatch&lt;div&gt;WithConsent&lt;/div&gt;" style="shape=parallelogram;perimeter=parallelogramPerimeter;whiteSpace=wrap;html=1;fixedSize=1;rounded=1;arcSize=14;strokeWidth=2;" vertex="1" parent="1">
          <mxGeometry x="2200" y="1081.5" width="170" height="75" as="geometry" />
        </mxCell>
        <mxCell id="zs8xVPO66WnE017DUfmN-20" value="updated Core&lt;div&gt;ResourceBundle&lt;/div&gt;" style="shape=parallelogram;perimeter=parallelogramPerimeter;whiteSpace=wrap;html=1;fixedSize=1;rounded=1;arcSize=14;strokeWidth=2;" vertex="1" parent="1">
          <mxGeometry x="2190" y="1190" width="170" height="70" as="geometry" />
        </mxCell>
        <mxCell id="zs8xVPO66WnE017DUfmN-23" value="&lt;span style=&quot;color: rgb(0, 0, 0); font-family: Helvetica; font-size: 12px; font-style: normal; font-variant-ligatures: normal; font-variant-caps: normal; font-weight: 400; letter-spacing: normal; orphans: 2; text-align: center; text-indent: 0px; text-transform: none; widows: 2; word-spacing: 0px; -webkit-text-stroke-width: 0px; white-space: normal; background-color: rgb(251, 251, 251); text-decoration-thickness: initial; text-decoration-style: initial; text-decoration-color: initial; float: none; display: inline !important;&quot;&gt;Process PatientBundle References&amp;nbsp;&lt;/span&gt;&lt;div style=&quot;forced-color-adjust: none; color: rgb(0, 0, 0); font-family: Helvetica; font-size: 12px; font-style: normal; font-variant-ligatures: normal; font-variant-caps: normal; font-weight: 400; letter-spacing: normal; orphans: 2; text-align: center; text-indent: 0px; text-transform: none; widows: 2; word-spacing: 0px; -webkit-text-stroke-width: 0px; white-space: normal; background-color: rgb(251, 251, 251); text-decoration-thickness: initial; text-decoration-style: initial; text-decoration-color: initial;&quot;&gt;(Updating PatientResourceBundle and CoreResourceBundle&lt;/div&gt;" style="text;whiteSpace=wrap;html=1;" vertex="1" parent="1">
          <mxGeometry x="840" y="1480" width="360" height="50" as="geometry" />
        </mxCell>
        <mxCell id="zs8xVPO66WnE017DUfmN-27" value="" style="edgeStyle=orthogonalEdgeStyle;rounded=0;orthogonalLoop=1;jettySize=auto;html=1;" edge="1" parent="1" source="zs8xVPO66WnE017DUfmN-24" target="zs8xVPO66WnE017DUfmN-26">
          <mxGeometry relative="1" as="geometry" />
        </mxCell>
        <mxCell id="zs8xVPO66WnE017DUfmN-24" value="&lt;div&gt;PatientBundle&lt;/div&gt;&lt;div&gt;Boolean applyConsent&lt;/div&gt;&lt;div&gt;CoreResourceBundle&lt;/div&gt;" style="shape=parallelogram;html=1;strokeWidth=2;perimeter=parallelogramPerimeter;whiteSpace=wrap;rounded=1;arcSize=12;size=0.23;" vertex="1" parent="1">
          <mxGeometry x="900" y="1580" width="180" height="90" as="geometry" />
        </mxCell>
        <mxCell id="zs8xVPO66WnE017DUfmN-56" value="" style="edgeStyle=orthogonalEdgeStyle;rounded=0;orthogonalLoop=1;jettySize=auto;html=1;" edge="1" parent="1" source="zs8xVPO66WnE017DUfmN-26" target="zs8xVPO66WnE017DUfmN-55">
          <mxGeometry relative="1" as="geometry" />
        </mxCell>
        <mxCell id="zs8xVPO66WnE017DUfmN-26" value="For every Resource" style="whiteSpace=wrap;html=1;strokeWidth=2;rounded=1;arcSize=12;" vertex="1" parent="1">
          <mxGeometry x="1190" y="1595" width="120" height="60" as="geometry" />
        </mxCell>
        <mxCell id="zs8xVPO66WnE017DUfmN-34" style="edgeStyle=orthogonalEdgeStyle;rounded=0;orthogonalLoop=1;jettySize=auto;html=1;entryX=0;entryY=0.5;entryDx=0;entryDy=0;" edge="1" parent="1" source="zs8xVPO66WnE017DUfmN-28" target="zs8xVPO66WnE017DUfmN-33">
          <mxGeometry relative="1" as="geometry" />
        </mxCell>
        <mxCell id="zs8xVPO66WnE017DUfmN-28" value="Handle Reference" style="shape=process;whiteSpace=wrap;html=1;backgroundOutline=1;strokeWidth=2;rounded=1;arcSize=12;" vertex="1" parent="1">
          <mxGeometry x="1610" y="1595" width="120" height="60" as="geometry" />
        </mxCell>
        <mxCell id="zs8xVPO66WnE017DUfmN-36" value="" style="edgeStyle=orthogonalEdgeStyle;rounded=0;orthogonalLoop=1;jettySize=auto;html=1;" edge="1" parent="1" source="zs8xVPO66WnE017DUfmN-33" target="zs8xVPO66WnE017DUfmN-35">
          <mxGeometry relative="1" as="geometry" />
        </mxCell>
        <mxCell id="zs8xVPO66WnE017DUfmN-38" value="yes" style="edgeLabel;html=1;align=center;verticalAlign=middle;resizable=0;points=[];" vertex="1" connectable="0" parent="zs8xVPO66WnE017DUfmN-36">
          <mxGeometry x="0.0667" relative="1" as="geometry">
            <mxPoint x="40" as="offset" />
          </mxGeometry>
        </mxCell>
        <mxCell id="zs8xVPO66WnE017DUfmN-44" value="" style="edgeStyle=orthogonalEdgeStyle;rounded=0;orthogonalLoop=1;jettySize=auto;html=1;" edge="1" parent="1" source="zs8xVPO66WnE017DUfmN-33" target="zs8xVPO66WnE017DUfmN-43">
          <mxGeometry relative="1" as="geometry" />
        </mxCell>
        <mxCell id="zs8xVPO66WnE017DUfmN-33" value="Updated Patient Resources?" style="rhombus;whiteSpace=wrap;html=1;" vertex="1" parent="1">
          <mxGeometry x="1830" y="1585" width="80" height="80" as="geometry" />
        </mxCell>
        <mxCell id="zs8xVPO66WnE017DUfmN-37" style="edgeStyle=orthogonalEdgeStyle;rounded=0;orthogonalLoop=1;jettySize=auto;html=1;entryX=0.5;entryY=0;entryDx=0;entryDy=0;" edge="1" parent="1" source="zs8xVPO66WnE017DUfmN-35" target="zs8xVPO66WnE017DUfmN-26">
          <mxGeometry relative="1" as="geometry" />
        </mxCell>
        <mxCell id="zs8xVPO66WnE017DUfmN-35" value="add to Resources to be processed" style="whiteSpace=wrap;html=1;" vertex="1" parent="1">
          <mxGeometry x="1810" y="1435" width="120" height="60" as="geometry" />
        </mxCell>
        <mxCell id="zs8xVPO66WnE017DUfmN-46" value="" style="edgeStyle=orthogonalEdgeStyle;rounded=0;orthogonalLoop=1;jettySize=auto;html=1;" edge="1" parent="1" source="zs8xVPO66WnE017DUfmN-43" target="zs8xVPO66WnE017DUfmN-45">
          <mxGeometry relative="1" as="geometry" />
        </mxCell>
        <mxCell id="zs8xVPO66WnE017DUfmN-43" value="all resources processed" style="rhombus;whiteSpace=wrap;html=1;" vertex="1" parent="1">
          <mxGeometry x="1990" y="1585" width="80" height="80" as="geometry" />
        </mxCell>
        <mxCell id="zs8xVPO66WnE017DUfmN-45" value="collect results" style="whiteSpace=wrap;html=1;" vertex="1" parent="1">
          <mxGeometry x="2130" y="1595" width="120" height="60" as="geometry" />
        </mxCell>
        <mxCell id="zs8xVPO66WnE017DUfmN-50" value="Put new Core Resources into&lt;div&gt;CoreResourceBundle&amp;nbsp;&lt;/div&gt;" style="whiteSpace=wrap;html=1;strokeWidth=2;rounded=1;arcSize=12;" vertex="1" parent="1">
          <mxGeometry x="1740" y="1665" width="120" height="60" as="geometry" />
        </mxCell>
        <mxCell id="zs8xVPO66WnE017DUfmN-52" style="edgeStyle=orthogonalEdgeStyle;rounded=0;orthogonalLoop=1;jettySize=auto;html=1;entryX=0.442;entryY=0.083;entryDx=0;entryDy=0;entryPerimeter=0;" edge="1" parent="1" source="zs8xVPO66WnE017DUfmN-28" target="zs8xVPO66WnE017DUfmN-50">
          <mxGeometry relative="1" as="geometry" />
        </mxCell>
        <mxCell id="zs8xVPO66WnE017DUfmN-53" value="&lt;span style=&quot;color: rgb(0, 0, 0); font-family: Helvetica; font-size: 12px; font-style: normal; font-variant-ligatures: normal; font-variant-caps: normal; font-weight: 400; letter-spacing: normal; orphans: 2; text-align: center; text-indent: 0px; text-transform: none; widows: 2; word-spacing: 0px; -webkit-text-stroke-width: 0px; white-space: normal; background-color: rgb(251, 251, 251); text-decoration-thickness: initial; text-decoration-style: initial; text-decoration-color: initial; display: inline !important; float: none;&quot;&gt;Handle Reference&lt;/span&gt;" style="text;whiteSpace=wrap;html=1;" vertex="1" parent="1">
          <mxGeometry x="770" y="1880" width="130" height="40" as="geometry" />
        </mxCell>
        <mxCell id="zs8xVPO66WnE017DUfmN-76" value="" style="edgeStyle=orthogonalEdgeStyle;rounded=0;orthogonalLoop=1;jettySize=auto;html=1;" edge="1" parent="1" source="zs8xVPO66WnE017DUfmN-54" target="zs8xVPO66WnE017DUfmN-75">
          <mxGeometry relative="1" as="geometry" />
        </mxCell>
        <mxCell id="zs8xVPO66WnE017DUfmN-54" value="&lt;div&gt;referenceWrapper&lt;/div&gt;&lt;div&gt;PatientBundle (optional)&lt;/div&gt;&lt;div&gt;Boolean applyConsent&lt;/div&gt;&lt;div&gt;CoreResourceBundle&lt;/div&gt;" style="shape=parallelogram;html=1;strokeWidth=2;perimeter=parallelogramPerimeter;whiteSpace=wrap;rounded=1;arcSize=12;size=0.23;" vertex="1" parent="1">
          <mxGeometry x="850" y="1910" width="180" height="90" as="geometry" />
        </mxCell>
        <mxCell id="zs8xVPO66WnE017DUfmN-58" value="" style="edgeStyle=orthogonalEdgeStyle;rounded=0;orthogonalLoop=1;jettySize=auto;html=1;" edge="1" parent="1" source="zs8xVPO66WnE017DUfmN-55" target="zs8xVPO66WnE017DUfmN-57">
          <mxGeometry relative="1" as="geometry" />
        </mxCell>
        <mxCell id="zs8xVPO66WnE017DUfmN-55" value="extract references" style="whiteSpace=wrap;html=1;strokeWidth=2;rounded=1;arcSize=12;" vertex="1" parent="1">
          <mxGeometry x="1330" y="1595" width="120" height="60" as="geometry" />
        </mxCell>
        <mxCell id="zs8xVPO66WnE017DUfmN-59" style="edgeStyle=orthogonalEdgeStyle;rounded=0;orthogonalLoop=1;jettySize=auto;html=1;entryX=0;entryY=0.5;entryDx=0;entryDy=0;" edge="1" parent="1" source="zs8xVPO66WnE017DUfmN-57" target="zs8xVPO66WnE017DUfmN-28">
          <mxGeometry relative="1" as="geometry" />
        </mxCell>
        <mxCell id="zs8xVPO66WnE017DUfmN-57" value="for every reference" style="whiteSpace=wrap;html=1;strokeWidth=2;rounded=1;arcSize=12;" vertex="1" parent="1">
          <mxGeometry x="1470" y="1595" width="120" height="60" as="geometry" />
        </mxCell>
        <mxCell id="zs8xVPO66WnE017DUfmN-65" value="" style="edgeStyle=orthogonalEdgeStyle;rounded=0;orthogonalLoop=1;jettySize=auto;html=1;" edge="1" parent="1" source="zs8xVPO66WnE017DUfmN-62" target="zs8xVPO66WnE017DUfmN-64">
          <mxGeometry relative="1" as="geometry" />
        </mxCell>
        <mxCell id="zs8xVPO66WnE017DUfmN-66" value="in patientBundle?" style="edgeLabel;html=1;align=center;verticalAlign=middle;resizable=0;points=[];" vertex="1" connectable="0" parent="zs8xVPO66WnE017DUfmN-65">
          <mxGeometry x="-0.0889" y="-2" relative="1" as="geometry">
            <mxPoint x="43" y="16" as="offset" />
          </mxGeometry>
        </mxCell>
        <mxCell id="zs8xVPO66WnE017DUfmN-68" value="" style="edgeStyle=orthogonalEdgeStyle;rounded=0;orthogonalLoop=1;jettySize=auto;html=1;" edge="1" parent="1" source="zs8xVPO66WnE017DUfmN-62" target="zs8xVPO66WnE017DUfmN-67">
          <mxGeometry relative="1" as="geometry" />
        </mxCell>
        <mxCell id="zs8xVPO66WnE017DUfmN-69" value="in Core Bundle" style="edgeLabel;html=1;align=center;verticalAlign=middle;resizable=0;points=[];" vertex="1" connectable="0" parent="zs8xVPO66WnE017DUfmN-68">
          <mxGeometry x="-0.6444" y="1" relative="1" as="geometry">
            <mxPoint x="49" as="offset" />
          </mxGeometry>
        </mxCell>
        <mxCell id="zs8xVPO66WnE017DUfmN-72" value="" style="edgeStyle=orthogonalEdgeStyle;rounded=0;orthogonalLoop=1;jettySize=auto;html=1;entryX=0;entryY=0.5;entryDx=0;entryDy=0;" edge="1" parent="1" source="zs8xVPO66WnE017DUfmN-62" target="zs8xVPO66WnE017DUfmN-74">
          <mxGeometry relative="1" as="geometry">
            <mxPoint x="1370" y="1955" as="targetPoint" />
          </mxGeometry>
        </mxCell>
        <mxCell id="zs8xVPO66WnE017DUfmN-73" value="no" style="edgeLabel;html=1;align=center;verticalAlign=middle;resizable=0;points=[];" vertex="1" connectable="0" parent="zs8xVPO66WnE017DUfmN-72">
          <mxGeometry x="-0.4333" y="3" relative="1" as="geometry">
            <mxPoint x="3" y="-12" as="offset" />
          </mxGeometry>
        </mxCell>
        <mxCell id="zs8xVPO66WnE017DUfmN-62" value="Resource Known?" style="rhombus;whiteSpace=wrap;html=1;strokeWidth=2;rounded=1;arcSize=12;" vertex="1" parent="1">
          <mxGeometry x="1240" y="1915" width="80" height="80" as="geometry" />
        </mxCell>
        <mxCell id="zs8xVPO66WnE017DUfmN-79" value="" style="edgeStyle=orthogonalEdgeStyle;rounded=0;orthogonalLoop=1;jettySize=auto;html=1;" edge="1" parent="1" source="zs8xVPO66WnE017DUfmN-64" target="zs8xVPO66WnE017DUfmN-78">
          <mxGeometry relative="1" as="geometry" />
        </mxCell>
        <mxCell id="zs8xVPO66WnE017DUfmN-64" value="get from Patient bundle" style="whiteSpace=wrap;html=1;strokeWidth=2;rounded=1;arcSize=12;" vertex="1" parent="1">
          <mxGeometry x="1220" y="1800" width="120" height="60" as="geometry" />
        </mxCell>
        <mxCell id="zs8xVPO66WnE017DUfmN-81" style="edgeStyle=orthogonalEdgeStyle;rounded=0;orthogonalLoop=1;jettySize=auto;html=1;entryX=0.5;entryY=1;entryDx=0;entryDy=0;" edge="1" parent="1" source="zs8xVPO66WnE017DUfmN-67" target="zs8xVPO66WnE017DUfmN-78">
          <mxGeometry relative="1" as="geometry" />
        </mxCell>
        <mxCell id="zs8xVPO66WnE017DUfmN-67" value="get from Core bundle" style="whiteSpace=wrap;html=1;strokeWidth=2;rounded=1;arcSize=12;" vertex="1" parent="1">
          <mxGeometry x="1220" y="2030" width="120" height="60" as="geometry" />
        </mxCell>
        <mxCell id="zs8xVPO66WnE017DUfmN-80" style="edgeStyle=orthogonalEdgeStyle;rounded=0;orthogonalLoop=1;jettySize=auto;html=1;" edge="1" parent="1" source="zs8xVPO66WnE017DUfmN-74" target="zs8xVPO66WnE017DUfmN-78">
          <mxGeometry relative="1" as="geometry" />
        </mxCell>
        <mxCell id="zs8xVPO66WnE017DUfmN-74" value="Fetch Resource" style="shape=process;whiteSpace=wrap;html=1;backgroundOutline=1;" vertex="1" parent="1">
          <mxGeometry x="1380" y="1925" width="120" height="60" as="geometry" />
        </mxCell>
        <mxCell id="zs8xVPO66WnE017DUfmN-77" value="" style="edgeStyle=orthogonalEdgeStyle;rounded=0;orthogonalLoop=1;jettySize=auto;html=1;" edge="1" parent="1" source="zs8xVPO66WnE017DUfmN-75" target="zs8xVPO66WnE017DUfmN-62">
          <mxGeometry relative="1" as="geometry" />
        </mxCell>
        <mxCell id="zs8xVPO66WnE017DUfmN-75" value="For all references in the wrapper" style="whiteSpace=wrap;html=1;strokeWidth=2;rounded=1;arcSize=12;" vertex="1" parent="1">
          <mxGeometry x="1070" y="1925" width="120" height="60" as="geometry" />
        </mxCell>
        <mxCell id="zs8xVPO66WnE017DUfmN-83" value="" style="edgeStyle=orthogonalEdgeStyle;rounded=0;orthogonalLoop=1;jettySize=auto;html=1;" edge="1" parent="1" source="zs8xVPO66WnE017DUfmN-78">
          <mxGeometry relative="1" as="geometry">
            <mxPoint x="1770" y="1955" as="targetPoint" />
          </mxGeometry>
        </mxCell>
        <mxCell id="zs8xVPO66WnE017DUfmN-78" value="for every linked group" style="whiteSpace=wrap;html=1;strokeWidth=2;rounded=1;arcSize=12;" vertex="1" parent="1">
          <mxGeometry x="1580" y="1925" width="120" height="60" as="geometry" />
        </mxCell>
        <mxCell id="zs8xVPO66WnE017DUfmN-86" value="" style="edgeStyle=orthogonalEdgeStyle;rounded=0;orthogonalLoop=1;jettySize=auto;html=1;" edge="1" parent="1" source="zs8xVPO66WnE017DUfmN-84" target="zs8xVPO66WnE017DUfmN-85">
          <mxGeometry relative="1" as="geometry" />
        </mxCell>
        <mxCell id="zs8xVPO66WnE017DUfmN-90" value="positive" style="edgeLabel;html=1;align=center;verticalAlign=middle;resizable=0;points=[];" vertex="1" connectable="0" parent="zs8xVPO66WnE017DUfmN-86">
          <mxGeometry x="-0.3333" y="3" relative="1" as="geometry">
            <mxPoint x="10" y="-12" as="offset" />
          </mxGeometry>
        </mxCell>
        <mxCell id="zs8xVPO66WnE017DUfmN-88" value="" style="edgeStyle=orthogonalEdgeStyle;rounded=0;orthogonalLoop=1;jettySize=auto;html=1;" edge="1" parent="1" source="zs8xVPO66WnE017DUfmN-84" target="zs8xVPO66WnE017DUfmN-87">
          <mxGeometry relative="1" as="geometry" />
        </mxCell>
        <mxCell id="zs8xVPO66WnE017DUfmN-91" value="negative" style="edgeLabel;html=1;align=center;verticalAlign=middle;resizable=0;points=[];" vertex="1" connectable="0" parent="zs8xVPO66WnE017DUfmN-88">
          <mxGeometry x="-0.3778" y="-4" relative="1" as="geometry">
            <mxPoint x="26" y="-1" as="offset" />
          </mxGeometry>
        </mxCell>
        <mxCell id="zs8xVPO66WnE017DUfmN-84" value="Profile&lt;div&gt;MustHaveCheck&lt;/div&gt;" style="rhombus;whiteSpace=wrap;html=1;" vertex="1" parent="1">
          <mxGeometry x="1770" y="1915" width="80" height="80" as="geometry" />
        </mxCell>
        <mxCell id="zs8xVPO66WnE017DUfmN-96" style="edgeStyle=orthogonalEdgeStyle;rounded=0;orthogonalLoop=1;jettySize=auto;html=1;" edge="1" parent="1" source="zs8xVPO66WnE017DUfmN-85" target="zs8xVPO66WnE017DUfmN-94">
          <mxGeometry relative="1" as="geometry" />
        </mxCell>
        <mxCell id="zs8xVPO66WnE017DUfmN-85" value="Assign Group to Resource" style="whiteSpace=wrap;html=1;" vertex="1" parent="1">
          <mxGeometry x="1910" y="1925" width="120" height="60" as="geometry" />
        </mxCell>
        <mxCell id="zs8xVPO66WnE017DUfmN-95" value="" style="edgeStyle=orthogonalEdgeStyle;rounded=0;orthogonalLoop=1;jettySize=auto;html=1;" edge="1" parent="1" source="zs8xVPO66WnE017DUfmN-87" target="zs8xVPO66WnE017DUfmN-94">
          <mxGeometry relative="1" as="geometry" />
        </mxCell>
        <mxCell id="zs8xVPO66WnE017DUfmN-87" value="MustHaveViolated" style="whiteSpace=wrap;html=1;" vertex="1" parent="1">
          <mxGeometry x="1750" y="1820" width="120" height="60" as="geometry" />
        </mxCell>
        <mxCell id="zs8xVPO66WnE017DUfmN-98" value="" style="edgeStyle=orthogonalEdgeStyle;rounded=0;orthogonalLoop=1;jettySize=auto;html=1;" edge="1" parent="1" source="zs8xVPO66WnE017DUfmN-94" target="zs8xVPO66WnE017DUfmN-97">
          <mxGeometry relative="1" as="geometry" />
        </mxCell>
        <mxCell id="zs8xVPO66WnE017DUfmN-99" value="yes" style="edgeLabel;html=1;align=center;verticalAlign=middle;resizable=0;points=[];" vertex="1" connectable="0" parent="zs8xVPO66WnE017DUfmN-98">
          <mxGeometry x="-0.2333" y="-3" relative="1" as="geometry">
            <mxPoint y="12" as="offset" />
          </mxGeometry>
        </mxCell>
        <mxCell id="zs8xVPO66WnE017DUfmN-101" value="" style="edgeStyle=orthogonalEdgeStyle;rounded=0;orthogonalLoop=1;jettySize=auto;html=1;" edge="1" parent="1" source="zs8xVPO66WnE017DUfmN-94" target="zs8xVPO66WnE017DUfmN-100">
          <mxGeometry relative="1" as="geometry" />
        </mxCell>
        <mxCell id="zs8xVPO66WnE017DUfmN-94" value="reference successfully handled" style="rhombus;whiteSpace=wrap;html=1;" vertex="1" parent="1">
          <mxGeometry x="2080" y="1915" width="80" height="80" as="geometry" />
        </mxCell>
        <mxCell id="zs8xVPO66WnE017DUfmN-97" value="return List of ResourceWrappers&amp;nbsp;" style="whiteSpace=wrap;html=1;" vertex="1" parent="1">
          <mxGeometry x="2220" y="1925" width="120" height="60" as="geometry" />
        </mxCell>
        <mxCell id="zs8xVPO66WnE017DUfmN-100" value="Throw Must Have Violation" style="whiteSpace=wrap;html=1;" vertex="1" parent="1">
          <mxGeometry x="2060" y="2085" width="120" height="60" as="geometry" />
        </mxCell>
      </root>
    </mxGraphModel>
  </diagram>
</mxfile>
